<svg width="42" height="34" viewBox="0 0 42 34" fill="none" xmlns="http://www.w3.org/2000/svg">
<path d="M25.4756 0.70929C22.1108 0.70929 19.2356 3.24684 17.6559 4.99629C16.0762 3.24684 13.2074 0.70929 9.84414 0.70929C4.04714 0.70929 0 4.9844 0 11.1041C0 17.8471 5.02642 22.2055 9.88909 26.4211C12.1848 28.4135 14.5607 30.472 16.3828 32.7548C16.6894 33.137 17.139 33.3578 17.6109 33.3578H17.704C18.1776 33.3578 18.6255 33.1353 18.9305 32.7548C20.7559 30.472 23.1302 28.4118 25.4275 26.4211C30.2886 22.2072 35.3182 17.8488 35.3182 11.1041C35.3182 4.9844 31.271 0.70929 25.4756 0.70929Z" fill="#F24E1E"/>
</svg>
