<svg width="28" height="20" viewBox="0 0 28 20" fill="none" xmlns="http://www.w3.org/2000/svg">
<path d="M14 1.66666C9.39996 1.66666 5.66663 5.4 5.66663 10C5.66663 14.6 9.39996 18.3333 14 18.3333C18.6 18.3333 22.3333 14.6 22.3333 10C22.3333 5.4 18.6 1.66666 14 1.66666ZM9.89163 15.2333C10.25 14.4833 12.4333 13.75 14 13.75C15.5666 13.75 17.7583 14.4833 18.1083 15.2333C16.975 16.1333 15.55 16.6667 14 16.6667C12.45 16.6667 11.025 16.1333 9.89163 15.2333ZM19.3 14.025C18.1083 12.575 15.2166 12.0833 14 12.0833C12.7833 12.0833 9.89163 12.575 8.69996 14.025C7.84996 12.9083 7.33329 11.5167 7.33329 10C7.33329 6.325 10.325 3.33333 14 3.33333C17.675 3.33333 20.6666 6.325 20.6666 10C20.6666 11.5167 20.15 12.9083 19.3 14.025Z" fill="#5F6368"/>
<path d="M14 5C12.3834 5 11.0834 6.3 11.0834 7.91667C11.0834 9.53333 12.3834 10.8333 14 10.8333C15.6167 10.8333 16.9167 9.53333 16.9167 7.91667C16.9167 6.3 15.6167 5 14 5ZM14 9.16667C13.3084 9.16667 12.75 8.60833 12.75 7.91667C12.75 7.225 13.3084 6.66667 14 6.66667C14.6917 6.66667 15.25 7.225 15.25 7.91667C15.25 8.60833 14.6917 9.16667 14 9.16667Z" fill="#5F6368"/>
</svg>
