<svg width="96" height="78" viewBox="0 0 96 78" fill="none" xmlns="http://www.w3.org/2000/svg">
<path d="M94.8075 41.8796C92.7123 40.4861 89.5644 39.9247 85.1634 40.1653C81.785 40.3458 77.5243 39.3433 76.5418 39.1027C76.201 38.5513 75.8 38.0099 75.3188 37.5187C75.1183 36.9372 74.2461 34.6716 72.1007 32.9172C71.7298 32.3257 69.5644 29.1477 64.4817 26.6916C63.9704 26.2806 60.1508 23.3432 54.6471 22.1703C53.9152 21.7893 48.2009 18.9723 41.7548 19.2129C41.5443 19.1928 37.6645 18.8319 33.3036 19.2931C34.6269 17.2781 36.261 13.4785 36.652 12.5362C37.3738 10.8119 39.038 9.34821 40.5017 8.04495C40.7924 7.78429 41.0731 7.54369 41.3337 7.30308C42.5769 6.16022 46.0155 2.02988 45.7748 0.766722C45.7448 0.626371 45.6546 0.355692 45.3137 0.185265C44.1007 -0.446315 39.4891 0.596295 35.439 2.41084C30.9678 4.42588 28.4816 7.84444 25.6044 11.8044L24.7923 12.9272C22.266 16.3758 22.1257 19.654 22.1959 21.0374C21.464 21.0675 20.251 21.3382 18.8775 22.4911C17.845 21.7893 14.9978 19.8545 13.2535 18.8119C11.2885 17.6289 8.54167 17.4685 7.76974 17.4485C7.48903 17.2279 6.89757 16.8369 6.00534 16.6465C4.91261 16.4059 4.10055 17.0775 3.7597 17.4184C2.85744 17.5287 1.69453 17.9798 0.872471 18.9522C0.190765 19.7643 -0.0999592 20.7768 0.0303669 21.8796C0.280994 24.065 3.03791 25.5487 5.24342 26.7317C5.84493 27.0525 6.42637 27.3633 6.82737 27.634C7.81986 28.2956 8.60183 28.4861 9.28353 28.6565C9.91511 28.8169 10.4665 28.9573 11.1683 29.4385C12.6319 30.461 14.9678 34.2104 14.9878 34.2505L15.058 34.2104C15.1382 34.5914 15.1983 34.9222 15.1783 35.1026C15.1582 35.2731 15.1282 35.4836 15.0881 35.7242C15.0179 36.1854 14.9277 36.7869 14.8876 37.4686C13.7848 37.4986 11.3687 37.8395 9.84494 40.2255C8.30107 42.6415 6.80734 45.5688 7.43892 48.9774C7.81987 51.0024 7.56924 53.6992 7.39881 55.4837C7.32864 56.1854 7.27853 56.7368 7.28855 57.0776C7.29858 58.1403 8.44143 64.7669 10.4464 66.9423C10.9076 67.4436 11.4389 68.1654 12.0003 68.9273C13.6043 71.1027 14.6871 72.4561 15.7397 72.4561C15.7898 72.4561 15.8399 72.4561 15.8901 72.4561C16.2209 72.416 16.672 72.2055 16.9728 71.4737C17.9252 69.1077 18.4866 66.6516 18.1056 62.3609C18.3963 61.8295 19.1883 60.1152 19.0179 57.7694C18.9878 57.2982 18.9177 56.6566 18.8475 55.9047C18.667 54.0801 18.1858 49.0676 18.5467 47.2531C19.8299 49.1077 21.2034 50.7318 22.2861 51.3934C22.6269 51.5939 22.8976 51.9047 23.2886 52.3258C24.5618 53.7192 26.6871 56.0451 34.8375 59.4035C40.4114 61.6992 44.9829 62.3809 48.7222 62.3809C51.9704 62.3809 54.5969 61.8696 56.7223 61.4486L57.2536 61.3483C58.8075 61.0476 59.5593 60.4761 59.8802 60.1353C60.1007 60.1152 60.4616 60.0751 60.9027 59.9849C62.5769 61.7694 66.2661 66.2005 66.2661 68.426C66.2661 71.594 68.2511 75.6642 70.2762 76.6366C70.4666 76.7268 70.6571 76.8271 70.8676 76.9373C71.7599 77.4085 72.9027 78 74.1258 78C75.2285 78 76.4015 77.5188 77.5243 76.0251C78.2361 75.0827 78.7874 74.4812 79.1985 74.0301C80.2511 72.8772 80.5418 72.4661 80.3915 70.5413C80.3012 69.3684 80.602 68.9373 80.8927 68.5163C81.1835 68.1052 81.5343 67.594 81.2536 66.6616C80.7524 65.0075 79.1484 62.1704 77.6646 60.7468C76.7824 59.9047 75.1884 59.1929 73.7749 58.5714C72.7724 58.1203 71.7298 57.6591 71.3188 57.2982C70.7373 56.7769 70.4065 56.005 70.2461 55.5037C71.6997 55.0927 73.404 54.4611 74.7574 53.5087C75.9303 53.2581 77.1935 53.208 77.4241 53.3984C77.7048 53.6491 78.2261 54.0501 78.7774 54.4611C79.389 54.9222 80.211 55.5538 80.3815 55.7543C80.5218 55.9248 80.7123 56.015 80.9128 56.015C81.0531 56.015 81.1835 55.9749 81.3038 55.8847C81.9554 55.4035 82.0055 53.238 80.7424 51.3333L79.5895 49.5989C79.9403 49.208 80.191 48.827 80.3213 48.4761C80.4616 48.0851 80.3614 47.5037 80.1408 46.8521C81.6246 47.1127 83.9103 47.4536 85.795 47.4536C87.1384 47.4536 88.2712 47.2731 88.7223 46.7718C89.1333 46.3107 89.3038 45.9699 89.4341 45.7192C89.5945 45.3884 89.6446 45.2881 91.1484 45.0375L91.8201 44.9272C94.196 44.5363 95.5494 44.2656 95.7499 43.3533C95.8903 42.6816 95.2787 42.1804 94.8075 41.8696V41.8796ZM76.9228 42.7718L75.9604 43.233L74.4767 38.4711L74.7874 38.6616L74.7173 38.5012C76.0406 39.9648 76.6922 41.9398 76.9328 42.7819L76.9228 42.7718ZM79.2787 48.1152C78.9378 49.0576 76.9027 50.5914 74.7874 52.1253L73.6646 49.1879L76.0305 44.4059L77.3639 43.7744C78.5669 45.6992 79.4491 47.6641 79.2887 48.1052L79.2787 48.1152ZM19.8901 44.5363L19.4891 37.7793L19.8901 32.3959L26.7673 26.5914L31.2385 28.9172L24.3212 47.8846L19.8901 44.5363ZM17.0129 42.5312C16.672 41.8696 16.4415 41.228 16.2811 40.6164L18.4364 38.451L18.7873 44.416L18.1758 44.6064C17.7748 43.9247 17.3738 43.233 17.0129 42.5212V42.5312ZM16.1708 35.8946C16.2109 35.634 16.251 35.4034 16.271 35.2129C16.3111 34.832 16.2209 34.3808 16.1006 33.8194C16.0404 33.5488 15.9803 33.238 15.9302 32.9072L17.3738 29.8395L18.7973 32.2655L18.4665 36.8771L16.0304 39.3132C15.87 37.9097 16.0404 36.7367 16.1808 35.9047L16.1708 35.8946ZM21.3738 22.2806C19.048 24.8169 16.9427 28.2054 16.8425 28.3658L16.672 28.6465L16.6921 28.6866L15.8099 30.5613C15.9101 29.258 16.3111 27.7342 17.3738 25.9999C18.9076 23.5036 20.3713 22.5913 21.3738 22.2806ZM36.9628 22.9522L41.2736 25.1076L39.2184 28.3758L32.0706 28.1051L27.5091 25.7392L29.4741 22.9522H36.9728H36.9628ZM42.3563 25.4585L49.7247 26.07L53.0831 29.4786L50.8475 32.6365L44.5017 32.2856L40.231 28.8169L42.3463 25.4585H42.3563ZM54.5468 23.273C58.7774 24.2054 62.0055 26.2605 63.2586 27.1528L59.5393 29.9498L54.0756 28.9272L50.8475 25.649L54.5468 23.2831V23.273ZM64.1809 37.0676C67.1684 36.9473 71.6696 36.9974 73.0631 37.619L75.028 43.9448L72.6621 48.7268C70.3664 49.6892 67.8902 50.6816 66.9478 51.0024C64.6621 45.629 63.3889 40.9874 63.409 38.1703L64.1709 37.0575L64.1809 37.0676ZM62.5969 37.4385L54.7272 36.6465L51.83 33.1879L54.0556 30.04L59.3589 31.0325L63.2185 36.5362L62.5969 37.4385ZM28.6119 21.1678L28.6319 22.2304L26.2861 25.5688L19.4991 31.2931L17.9552 28.6665C18.5968 27.654 20.9026 24.1653 23.1081 22.0901C24.4615 21.5086 27.3788 21.258 28.6019 21.1678H28.6119ZM25.2435 48.5864L32.3212 29.1778L39.3087 29.4886L43.6596 33.0275C42.8977 35.3032 38.9177 47.4435 38.4265 55.4636C36.8325 55.4937 31.6495 55.3734 29.1332 52.807C26.9577 50.5914 25.835 49.3583 25.3337 48.8069L25.4139 48.7268L25.2535 48.6064L25.2435 48.5864ZM29.0029 54.1503C30.8676 55.614 33.4941 56.2055 35.5793 56.426L34.7773 58.1804C32.1207 57.0676 30.1457 56.0751 28.662 55.203L29.0029 54.1503ZM36.7423 56.5263C37.5844 56.5764 38.2661 56.5664 38.647 56.5563C39.0581 57.0476 40.1107 57.7694 42.8776 58.1804L43.2986 60.7769C41.043 60.3759 38.5468 59.6842 35.7999 58.5914L36.7523 56.5263H36.7423ZM39.4992 55.8746C39.8801 48.1553 43.9002 35.7643 44.6821 33.4084L50.8475 33.7493L53.7849 37.2581C52.9428 39.1027 48.9528 48.5964 50.8876 57.3182C41.454 57.7493 39.6997 56.1253 39.4891 55.8746H39.4992ZM52.0004 57.2581C50.0856 49.0275 53.9353 39.6641 54.7774 37.7593L62.3162 38.5212C62.4065 42.5713 64.612 48.3558 65.9955 51.5739L65.9052 51.7443C65.9052 51.7443 63.0982 56.5363 52.0004 57.2581ZM59.1383 57.1679C63.008 56.015 65.0932 54.3408 66.0857 53.2781L66.5468 55.4937C66.3363 55.7744 65.6947 56.4962 64.0305 57.5689C62.3263 58.6516 60.6621 58.9423 59.9503 59.0125L59.1383 57.1578V57.1679ZM67.5694 54.9824L66.9779 52.1453C67.6095 51.9849 69.0732 51.4335 72.7624 49.8897L73.8652 52.7769C71.7599 54.1403 68.7423 54.7719 67.5694 54.9824ZM71.1784 33.5387L72.4717 36.3157C69.9453 35.7844 65.4641 35.9247 64.1608 35.9748L60.4315 30.6615L64.231 27.8044C69.0732 30.2104 71.0581 33.3282 71.1784 33.5387ZM53.3137 22.7618L49.845 24.9873L42.226 24.3558L38.256 22.3708L41.835 20.3056C46.8676 20.1552 51.4591 21.9297 53.3137 22.7618ZM39.83 20.1953L36.9528 21.8595H29.7347V21.0174C33.4039 20.1252 37.5042 20.1051 39.84 20.1953H39.83ZM25.6746 13.5788L26.4966 12.456C29.2836 8.62639 31.6896 5.3081 35.8901 3.42338C40.221 1.47851 43.7799 0.957205 44.652 1.11761C44.3413 2.04994 42.1357 5.07751 40.5819 6.50107C40.3312 6.73165 40.0505 6.97225 39.7698 7.2329C38.2961 8.53616 36.4515 10.1602 35.6295 12.1151C34.1257 15.6941 32.3412 19.0926 31.7598 19.5036C30.8575 19.644 29.9553 19.8144 29.063 20.045C28.5618 20.0751 25.2735 20.2655 23.2886 20.867C23.2385 19.5938 23.4289 16.6364 25.6746 13.5888V13.5788ZM7.42889 26.7117C6.97776 26.4209 6.38627 26.1001 5.76472 25.7593C4.78226 25.2279 3.61937 24.5964 2.68704 23.8846C3.68955 24.3658 4.68203 24.8971 5.06298 25.2781L5.84494 24.4961C4.98278 23.6339 2.12561 22.3908 1.19328 21.9999C1.17323 21.9096 1.12312 21.8294 1.11309 21.7492C1.02287 20.9372 1.22337 20.2355 1.70457 19.654C2.36623 18.862 3.37875 18.5312 4.0404 18.4911L4.29103 18.471L4.44143 18.2806C4.44143 18.2806 5.01286 17.5587 5.75471 17.7191C6.667 17.9197 7.15822 18.3808 7.15822 18.3808L7.31863 18.5412H7.54918C7.54918 18.5412 10.677 18.5613 12.672 19.7542C14.2961 20.7267 16.9026 22.4911 18.0454 23.263C17.5141 23.8344 16.9627 24.5462 16.4214 25.4385C14.8475 28.0049 14.5868 30.1603 14.6871 31.8445C14.2059 31.1628 13.6344 30.4009 13.063 29.7493C13.5041 29.649 13.9953 29.5387 14.3161 29.4886L14.1357 28.4059C13.6043 28.4961 12.6419 28.7267 12.1607 28.837C12.1507 28.8269 12.1407 28.8169 12.1206 28.8069C12.5517 28.5061 13.053 27.9848 13.5743 27.0926L12.6219 26.5312C11.8098 27.9147 11.2184 28.0951 11.048 28.1152C10.5066 27.8445 10.0154 27.7142 9.5442 27.5939C8.88254 27.4234 8.26099 27.2731 7.41888 26.7217L7.42889 26.7117ZM17.7547 56.015C17.8249 56.7468 17.8851 57.3884 17.9252 57.8496C18.0956 60.2656 17.0931 61.9398 17.083 61.9498L16.9828 62.1102L17.0029 62.2907C17.3838 66.4812 16.8826 68.7468 15.9602 71.0626C15.86 71.3032 15.7798 71.3634 15.7597 71.3634C15.1883 71.4035 13.7046 69.3884 12.8926 68.2857C12.3111 67.4937 11.7597 66.7518 11.2585 66.2105C9.59431 64.3959 8.40131 58.1203 8.39129 57.0676C8.39129 56.7869 8.44143 56.2355 8.50158 55.5839C8.672 53.7393 8.93265 50.9523 8.52162 48.7769C8.07049 46.3708 8.74217 43.9849 10.7773 40.8169C12.0103 38.8921 13.9753 38.6014 14.8775 38.5713C14.9176 39.8646 15.1983 41.3884 16.0404 43.0325C16.5417 44.025 17.1632 45.0977 17.8249 46.1403C17.1031 47.3834 17.2434 50.5814 17.7647 56.015H17.7547ZM18.7673 45.5889L19.2485 45.4385L23.7698 48.8571L22.5167 50.1904C21.4841 49.3984 20.0906 47.6641 18.7673 45.5889ZM24.1106 51.5839C23.86 51.3032 23.6294 51.0726 23.3888 50.8621L24.5718 49.5989C25.0831 50.1704 26.1558 51.3333 28.1106 53.3283L27.6996 54.6014C25.6946 53.3082 24.7723 52.3057 24.1106 51.5739V51.5839ZM44.4415 60.9574L44.0105 58.3107C45.1032 58.421 46.3864 58.4912 47.9403 58.4912C48.9027 58.4912 49.9954 58.4611 51.1583 58.401L51.9603 61.0977C49.815 61.3183 47.3287 61.3684 44.4415 60.9574ZM57.0531 60.2656L56.5217 60.3659C55.4992 60.5664 54.3563 60.7869 53.0731 60.9574L52.2912 58.3308C54.5267 58.1704 56.4315 57.8596 58.0656 57.4486L58.9578 59.4736C58.7072 59.6842 58.1458 60.0451 57.0431 60.2556L57.0531 60.2656ZM70.5869 58.1203C71.1283 58.6015 72.1509 59.0526 73.3238 59.5839C74.6471 60.1754 76.1509 60.837 76.9028 61.5589C78.3363 62.9323 79.79 65.6491 80.201 67.0025C80.3313 67.4235 80.2411 67.5438 79.9905 67.9047C79.6396 68.406 79.1684 69.0777 79.2987 70.6516C79.419 72.1854 79.2987 72.3057 78.3864 73.3083C77.9654 73.7694 77.394 74.401 76.6521 75.3734C74.8376 77.7794 73.0832 76.8571 71.389 75.9749C71.1684 75.8647 70.9679 75.7544 70.7674 75.6541C69.2837 74.9423 67.3789 71.3133 67.3789 68.426C67.3789 65.7794 63.6295 61.3483 62.1158 59.6641C62.8777 59.4235 63.7498 59.0526 64.632 58.4912C66.4165 57.3483 67.1684 56.5162 67.4691 56.1152C67.8 56.0651 68.4115 55.9548 69.1834 55.7744C69.3839 56.3959 69.795 57.4085 70.597 58.1203H70.5869ZM80.6521 54.5213C80.3514 54.2706 79.9404 53.9598 79.4391 53.5789C78.9178 53.1879 78.4165 52.807 78.1559 52.5764C77.815 52.2656 77.2135 52.1754 76.5619 52.1754C77.4441 51.5137 78.196 50.9323 78.7874 50.4009L79.82 51.9548C80.4917 52.9673 80.6521 53.9298 80.6521 54.5213ZM91.6497 43.8445L90.968 43.9548C89.1434 44.2656 88.8125 44.4962 88.4516 45.238C88.3414 45.4485 88.2211 45.6992 87.9103 46.04C87.3589 46.6516 83.2687 46.3307 79.6597 45.649C79.1283 44.5162 78.4466 43.4034 78.0857 42.842C78.0155 42.5212 77.7448 41.5287 77.2235 40.3859C78.9779 40.7769 82.3564 41.4185 85.2236 41.2581C89.3138 41.0375 92.3314 41.5488 94.196 42.7919C94.4366 42.9523 94.567 43.0726 94.6271 43.1428C94.2061 43.4235 92.6221 43.6841 91.6497 43.8445Z" fill="black"/>
</svg>
