<svg width="14" height="14" viewBox="0 0 14 14" fill="none" xmlns="http://www.w3.org/2000/svg">
<g clip-path="url(#clip0_146_66)">
<path d="M13.16 7.14584C13.16 6.69084 13.1192 6.25334 13.0433 5.83334H7V8.31543H10.4533C10.3046 9.11751 9.8525 9.79709 9.17292 10.2521V11.8621H11.2467C12.46 10.745 13.16 9.10001 13.16 7.14584Z" fill="#4285F4"/>
<path d="M7.00004 13.4167C8.73254 13.4167 10.185 12.8421 11.2467 11.8621L9.17295 10.2521C8.59837 10.6371 7.86337 10.8646 7.00004 10.8646C5.32879 10.8646 3.9142 9.73584 3.40962 8.21918H1.26587V9.88168C2.3217 11.9788 4.4917 13.4167 7.00004 13.4167Z" fill="#34A853"/>
<path d="M3.40962 8.21918C3.28129 7.83418 3.20837 7.42293 3.20837 7.00001C3.20837 6.5771 3.28129 6.16585 3.40962 5.78085V4.11835H1.26587C0.831291 4.9846 0.583374 5.9646 0.583374 7.00001C0.583374 8.03543 0.831291 9.01543 1.26587 9.88168L3.40962 8.21918Z" fill="#FBBC05"/>
<path d="M7.00004 3.13543C7.94212 3.13543 8.78795 3.45918 9.45295 4.09501L11.2934 2.25459C10.1821 1.21918 8.72962 0.583344 7.00004 0.583344C4.4917 0.583344 2.3217 2.02126 1.26587 4.11834L3.40962 5.78084C3.9142 4.26418 5.32879 3.13543 7.00004 3.13543Z" fill="#EA4335"/>
</g>
<defs>
<clipPath id="clip0_146_66">
<rect width="14" height="14" fill="white"/>
</clipPath>
</defs>
</svg>
